HIERARCHY
ROOT Hips
{
	OFFSET -0.001795 -0.223333 0.028219
	CHANNELS 6 Xposition Yposition Zposition Zrotation Yrotation Xrotation 
	JOINT LeftUpLeg
	{
		OFFSET 0.069520 -0.091406 -0.006815
		CHANNELS 3 Zrotation Yrotation Xrotation
		JOINT LeftLeg
		{
			OFFSET 0.034277 -0.375199 -0.004496
			CHANNELS 3 Zrotation Yrotation Xrotation
			JOINT LeftFoot
			{
				OFFSET -0.013596 -0.397961 -0.043693
				CHANNELS 3 Zrotation Yrotation Xrotation
				JOINT LeftToe
				{
					OFFSET 0.026358 -0.055791 0.119288
					CHANNELS 3 Zrotation Yrotation Xrotation
					End Site
					{
						OFFSET 0.000000 0.000000 0.000000
					}
				}
			}
		}
	}
	JOINT RightUpLeg
	{
		OFFSET -0.067670 -0.090522 -0.004320
		CHANNELS 3 Zrotation Yrotation Xrotation
		JOINT RightLeg
		{
			OFFSET -0.038290 -0.382569 -0.008850
			CHANNELS 3 Zrotation Yrotation Xrotation
			JOINT RightFoot
			{
				OFFSET 0.015774 -0.398415 -0.042312
				CHANNELS 3 Zrotation Yrotation Xrotation
				JOINT RightToe
				{
					OFFSET -0.025372 -0.048144 0.123348
					CHANNELS 3 Zrotation Yrotation Xrotation
					End Site
					{
						OFFSET 0.000000 0.000000 0.000000
					}
				}
			}
		}
	}
	JOINT Spine
	{
		OFFSET -0.002533 0.108963 -0.026696
		CHANNELS 3 Zrotation Yrotation Xrotation
		JOINT Spine1
		{
			OFFSET 0.005487 0.135180 0.001092
			CHANNELS 3 Zrotation Yrotation Xrotation
			JOINT Spine2
			{
				OFFSET 0.001457 0.052922 0.025425
				CHANNELS 3 Zrotation Yrotation Xrotation
				JOINT Neck
				{
					OFFSET -0.002778 0.213870 -0.042857
					CHANNELS 3 Zrotation Yrotation Xrotation
					JOINT Head
					{
						OFFSET 0.005152 0.064970 0.051349
						CHANNELS 3 Zrotation Yrotation Xrotation
						End Site
						{
							OFFSET 0.000000 0.000000 0.000000
						}
					}
				}
				JOINT LeftShoulder
				{
					OFFSET 0.078845 0.121749 -0.034090
					CHANNELS 3 Zrotation Yrotation Xrotation
					JOINT LeftArm
					{
						OFFSET 0.090977 0.030469 -0.008868
						CHANNELS 3 Zrotation Yrotation Xrotation
						JOINT LeftForeArm
						{
							OFFSET 0.259612 -0.012772 -0.027456
							CHANNELS 3 Zrotation Yrotation Xrotation
							JOINT LeftHand
							{
								OFFSET 0.249234 0.008986 -0.001171
								CHANNELS 3 Zrotation Yrotation Xrotation
								End Site
								{
									OFFSET 0.000000 0.000000 0.000000
								}
							}
						}
					}
				}
				JOINT RightShoulder
				{
					OFFSET -0.081759 0.118833 -0.038615
					CHANNELS 3 Zrotation Yrotation Xrotation
					JOINT RightArm
					{
						OFFSET -0.096012 0.032551 -0.009143
						CHANNELS 3 Zrotation Yrotation Xrotation
						JOINT RightForeArm
						{
							OFFSET -0.253742 -0.013329 -0.021401
							CHANNELS 3 Zrotation Yrotation Xrotation
							JOINT RightHand
							{
								OFFSET -0.255298 0.007772 -0.005559
								CHANNELS 3 Zrotation Yrotation Xrotation
								End Site
								{
									OFFSET 0.000000 0.000000 0.000000
								}
							}
						}
					}
				}
			}
		}
	}
}
MOTION
Frames: 7
Frame Time: 0.050000
0.916919 0.944901 1.059168 -179.157177 58.986998 -176.490959 4.235097 -3.379708 1.988099 0.249402 -1.875363 -3.690223 4.047940 -6.840307 2.998600 0.000000 0.000000 0.000000 -3.316239 -3.994978 -3.874237 -1.819240 -1.652989 1.164650 24.059705 8.183406 6.394133 0.000000 0.000000 0.000000 -0.446289 -0.364921 -2.152021 -5.652579 -5.424500 1.122734 4.579248 6.511258 6.634594 8.087321 6.315360 -23.192449 0.000000 0.000000 0.000000 -23.452036 -11.649230 -33.660623 -37.396081 31.815895 -8.072196 -18.240913 -25.211325 1.214674 0.000000 0.000000 0.000000 26.724044 -2.027765 25.915806 44.049669 30.836267 2.138474 -18.067912 46.347033 -3.645451 0.000000 0.000000 0.000000 
0.916879 0.944887 1.060477 -178.928230 59.368284 -176.169844 4.368179 -3.524209 2.436371 0.099651 -1.997412 -4.420876 3.759795 -6.695018 3.062236 0.000000 0.000000 0.000000 -2.995603 -3.809062 -4.156817 -1.799358 -1.622438 1.109266 23.322534 8.087112 5.994522 0.000000 0.000000 0.000000 -0.502486 -0.386101 -2.315426 -5.789194 -5.361863 1.168708 4.815378 6.259723 6.657140 8.442073 6.174253 -22.933692 0.000000 0.000000 0.000000 -23.663924 -11.263676 -33.604976 -37.098005 31.806288 -7.988291 -18.697794 -25.128609 1.347775 0.000000 0.000000 0.000000 26.400985 -1.611876 25.646033 43.995437 30.930883 2.340860 -20.082436 48.095456 -4.255459 0.000000 0.000000 0.000000 
0.917004 0.944909 1.062635 -178.505343 59.610039 -175.660133 4.689150 -3.718965 2.677228 0.130772 -2.087225 -5.058215 3.625885 -6.397117 3.328330 0.000000 0.000000 0.000000 -2.643404 -3.623120 -4.418653 -1.607273 -1.601173 0.755062 22.362718 7.780187 6.206341 0.000000 0.000000 0.000000 -0.714696 -0.398618 -2.345583 -5.390534 -5.274239 1.005867 4.821691 5.720855 6.784559 8.949578 5.930282 -22.575900 0.000000 0.000000 0.000000 -23.662698 -10.952969 -33.329159 -37.100767 31.677220 -8.049231 -19.066327 -25.403998 1.464838 0.000000 0.000000 0.000000 26.354101 -1.547598 25.383727 43.522398 31.399906 2.449038 -21.616542 49.688987 -4.735946 0.000000 0.000000 0.000000 
0.917436 0.945109 1.065521 -178.086259 59.685730 -175.047134 5.236026 -3.948876 2.700529 -0.053605 -2.249083 -5.676466 3.354304 -6.167798 3.672479 0.000000 0.000000 0.000000 -2.243331 -3.428836 -4.728293 -1.437916 -1.590725 0.465999 20.908042 7.184859 6.195881 0.000000 0.000000 0.000000 -0.839237 -0.437970 -2.576228 -5.211613 -5.235160 0.923917 4.884050 5.300992 6.873024 9.635548 5.618140 -22.207014 0.000000 0.000000 0.000000 -23.637184 -10.728036 -33.149231 -36.826464 31.656230 -8.005382 -19.749474 -25.994211 1.657633 0.000000 0.000000 0.000000 26.286794 -1.241863 25.365088 43.645770 31.347055 2.509239 -22.700489 51.122973 -5.164373 0.000000 0.000000 0.000000 
0.917841 0.945252 1.068535 -177.646318 59.713137 -174.504543 5.602970 -4.110507 2.722239 -0.064003 -2.338505 -6.119705 3.247480 -6.000166 3.871458 0.000000 0.000000 0.000000 -1.896662 -3.261956 -4.924725 -1.086290 -1.678136 0.245706 20.060027 6.900492 6.390682 0.000000 0.000000 0.000000 -0.923263 -0.458271 -2.685302 -4.939943 -5.212424 0.858010 5.033703 4.954915 7.036382 9.896047 5.565211 -22.199666 0.000000 0.000000 0.000000 -23.828502 -10.659856 -33.153063 -36.414070 31.753793 -7.882823 -20.310164 -25.861969 1.826174 0.000000 0.000000 0.000000 26.526169 -1.259606 25.393607 43.432564 31.376445 2.368303 -22.602037 52.059106 -5.173478 0.000000 0.000000 0.000000 
0.918183 0.945336 1.071223 -177.296619 59.769567 -173.908692 5.884240 -4.133391 2.396947 -0.072342 -2.337717 -6.088644 3.422243 -6.115986 3.658908 0.000000 0.000000 0.000000 -1.589758 -3.109420 -5.094954 -0.821682 -1.691921 -0.151938 19.206179 6.556610 6.450843 0.000000 0.000000 0.000000 -1.005578 -0.470479 -2.740744 -4.490374 -5.112779 0.615893 4.980207 4.503931 7.250649 9.952212 5.433226 -21.805302 0.000000 0.000000 0.000000 -23.810011 -10.401400 -33.147501 -36.326879 31.910008 -7.947249 -21.391425 -26.035001 2.052786 0.000000 0.000000 0.000000 26.385999 -1.380437 25.062787 43.753434 30.846455 2.298783 -22.146801 52.874300 -4.913871 0.000000 0.000000 0.000000 
0.918343 0.945389 1.073288 -177.226834 59.640950 -173.853424 5.932549 -4.166044 2.433423 0.028644 -2.375566 -6.375928 3.304901 -6.028648 3.872176 0.000000 0.000000 0.000000 -1.526439 -3.092109 -5.110996 -0.464921 -1.826849 -0.257334 18.953788 6.487231 6.536497 0.000000 0.000000 0.000000 -0.953243 -0.444039 -2.565106 -4.323542 -5.147807 0.603072 5.144788 4.322997 7.461523 9.854717 5.422116 -21.529381 0.000000 0.000000 0.000000 -23.960127 -10.160862 -33.340276 -36.383293 32.217979 -8.061885 -22.097143 -25.433658 2.147542 0.000000 0.000000 0.000000 26.560462 -1.515243 25.024993 43.638974 30.453908 2.042499 -20.549605 52.884863 -4.302272 0.000000 0.000000 0.000000 
